<svg xmlns="http://www.w3.org/2000/svg" viewBox="0 0 198.1 77.45"><defs><style>.cls-1{fill:none;stroke:#000;stroke-miterlimit:10;stroke-width:3.5px;}</style></defs><title>LOGO</title><g id="Layer_2" data-name="Layer 2"><g id="Layer_1-2" data-name="Layer 1"><path class="cls-1" d="M40.29,55V5.57l-.81,1c-10.3,13.31-27.91,12.82-37.69-1h0l.5,71.85"/><path d="M71.65,28.56h1.29l2.42,6.49.86,2.41h.08l.82-2.41,2.46-6.49h1.28V42.4h-.94V33c0-1,.08-2.33.12-3.28H80L79.22,32l-2.6,6.67h-.76L73.29,32l-.82-2.37h0c0,.95.14,2.29.14,3.28V42.4h-.92Z"/><path d="M84.48,39.89c0-2.26,2.27-3.33,7.74-3.81,0-1.66-.69-3.2-3-3.2a7.07,7.07,0,0,0-3.82,1.37L85,33.56a8.19,8.19,0,0,1,4.36-1.5c2.7,0,3.82,1.74,3.82,3.89V42.4h-.79l-.1-1.51h-.05A7.29,7.29,0,0,1,88,42.65C86.2,42.65,84.48,41.78,84.48,39.89Zm7.74.13V36.79c-5.14.46-6.78,1.43-6.78,3.05,0,1.44,1.36,2,2.72,2A6.52,6.52,0,0,0,92.22,40Z"/><path d="M98.59,32.31h.79l.1,2.49h0a5.71,5.71,0,0,1,4.74-2.74,4.41,4.41,0,0,1,2,.42l-.27.83a4.73,4.73,0,0,0-1.9-.36c-1.68,0-3.21.85-4.61,3.15v6.3h-.93Z"/><path d="M114.85,33.12h-5v-.81h6V42.4h-.93Zm-.74-4.26a1,1,0,1,1,1,1A1,1,0,0,1,114.11,28.86Z"/><path d="M122.28,39.89c0-2.26,2.27-3.33,7.74-3.81,0-1.66-.69-3.2-3-3.2a7.07,7.07,0,0,0-3.82,1.37l-.43-.69a8.16,8.16,0,0,1,4.36-1.5c2.7,0,3.82,1.74,3.82,3.89V42.4h-.79l-.1-1.51H130a7.29,7.29,0,0,1-4.21,1.76C124,42.65,122.28,41.78,122.28,39.89ZM130,40V36.79c-5.14.46-6.78,1.43-6.78,3.05,0,1.44,1.36,2,2.71,2A6.52,6.52,0,0,0,130,40Z"/><path d="M112.44,52.24a2.12,2.12,0,0,1,2-2.28,2.07,2.07,0,0,1,1.42.62h0l0-.88V47.92h.4V54.4H116l0-.65h0a2.21,2.21,0,0,1-1.54.75C113.21,54.5,112.44,53.7,112.44,52.24Zm3.44,1.12V51a2,2,0,0,0-1.38-.63,1.78,1.78,0,0,0-1.64,1.92c0,1.15.57,1.91,1.54,1.91A2.09,2.09,0,0,0,115.88,53.36Z"/><path d="M117.92,52.24A2.18,2.18,0,0,1,120.09,50,1.83,1.83,0,0,1,122,52a1.88,1.88,0,0,1,0,.34h-3.88V52h3.71l-.17.16c0-1.23-.64-1.81-1.56-1.81a1.79,1.79,0,0,0-1.77,1.91,1.82,1.82,0,0,0,1.9,1.94,2.44,2.44,0,0,0,1.45-.47l.16.3a2.77,2.77,0,0,1-1.64.51A2.17,2.17,0,0,1,117.92,52.24Z"/><path d="M123.19,50.07h.41l1.2,2.71c.19.43.37.85.53,1.24h0c.17-.39.33-.81.52-1.24l1.2-2.71h.39l-1.93,4.33h-.42Z"/><path d="M128.72,52.24A2.18,2.18,0,0,1,130.89,50a1.83,1.83,0,0,1,1.93,2,1.88,1.88,0,0,1,0,.34h-3.88V52h3.71l-.17.16c0-1.23-.64-1.81-1.56-1.81a1.79,1.79,0,0,0-1.77,1.91,1.82,1.82,0,0,0,1.9,1.94,2.49,2.49,0,0,0,1.45-.47l.16.3a2.77,2.77,0,0,1-1.64.51A2.17,2.17,0,0,1,128.72,52.24Z"/><path d="M135.87,53.09V48.27h-1.64v-.35h2v5.23c0,.68.33,1,.94,1a2,2,0,0,0,.89-.22l.13.31a2.3,2.3,0,0,1-1.08.26C136.34,54.5,135.87,54.07,135.87,53.09Z"/><path d="M139.44,52.24a2.1,2.1,0,1,1,2.09,2.26A2.1,2.1,0,0,1,139.44,52.24Zm3.77,0a1.69,1.69,0,1,0-1.68,1.91A1.73,1.73,0,0,0,143.21,52.24Z"/><path d="M145.18,50.07h.34l0,.63h0A2.48,2.48,0,0,1,147.2,50c1.22,0,1.83.87,1.83,2.21a2.11,2.11,0,0,1-2,2.33,2.37,2.37,0,0,1-1.43-.61h0l0,.88v1.58h-.4Zm3.43,2.1c0-1.06-.42-1.85-1.48-1.85a2.33,2.33,0,0,0-1.55.79v2.4a2.28,2.28,0,0,0,1.4.64C147.93,54.15,148.61,53.34,148.61,52.17Z"/><path d="M150.32,52.24A2.18,2.18,0,0,1,152.49,50a1.83,1.83,0,0,1,1.93,2,1.88,1.88,0,0,1,0,.34h-3.88V52h3.71l-.17.16c0-1.23-.64-1.81-1.57-1.81a1.79,1.79,0,0,0-1.76,1.91,1.82,1.82,0,0,0,1.9,1.94,2.49,2.49,0,0,0,1.45-.47l.16.3a2.77,2.77,0,0,1-1.64.51A2.17,2.17,0,0,1,150.32,52.24Z"/><path d="M156.5,50.07h.34l0,1.07h0a2.47,2.47,0,0,1,2-1.18,1.92,1.92,0,0,1,.87.18l-.12.36a2.05,2.05,0,0,0-.81-.16,2.31,2.31,0,0,0-2,1.35V54.4h-.4Z"/><path d="M138.24,36c0-4.39,2.15-7.12,5.17-7.12s5.17,2.73,5.17,7.12-2.16,7.22-5.17,7.22S138.24,40.39,138.24,36Zm9.32,0c0-3.84-1.68-6.24-4.15-6.24s-4.16,2.4-4.16,6.24,1.68,6.34,4.16,6.34S147.56,39.85,147.56,36Z"/><path d="M151.54,37.93A5.15,5.15,0,0,1,157,32.62a5,5,0,0,1,3.63,1.53l-.54.64a4.36,4.36,0,0,0-3.07-1.35,4.3,4.3,0,0,0-4.54,4.49A4.25,4.25,0,0,0,157,42.38a4.93,4.93,0,0,0,3.39-1.45l.49.64A5.61,5.61,0,0,1,157,43.2C153.87,43.2,151.54,41.26,151.54,37.93Z"/><path d="M164.52,27.85h.93v4.38l-.06,2.64h.05c1.2-1.32,2.42-2.25,4-2.25,2.45,0,3.62,1.32,3.62,4.05V43h-.93V36.79c0-2.25-.84-3.34-2.84-3.34-1.43,0-2.42.75-3.87,2.27V43h-.93Z"/><path d="M176.32,37.93c0-3.38,2.25-5.31,4.89-5.31s4.88,1.93,4.88,5.31-2.24,5.27-4.88,5.27S176.32,41.26,176.32,37.93Zm8.8,0c0-2.66-1.64-4.49-3.91-4.49s-3.92,1.83-3.92,4.49,1.64,4.45,3.92,4.45S185.12,40.58,185.12,37.93Z"/><path d="M189.43,40.44c0-2.26,2.27-3.32,7.73-3.81,0-1.66-.68-3.2-3-3.2a7,7,0,0,0-3.82,1.37l-.43-.68a8.07,8.07,0,0,1,4.36-1.5c2.7,0,3.82,1.73,3.82,3.89V43h-.79l-.11-1.51h0A7.23,7.23,0,0,1,193,43.2C191.14,43.2,189.43,42.33,189.43,40.44Zm7.73.13V37.35c-5.13.45-6.77,1.42-6.77,3,0,1.45,1.35,2,2.71,2A6.44,6.44,0,0,0,197.16,40.57Z"/><path d="M45.33,28.67v3.38A21.13,21.13,0,1,1,34.46,32V28.73a24.76,24.76,0,1,0,10.87-.06Z"/></g></g></svg>